<svg xmlns="http://www.w3.org/2000/svg" viewBox="0 0 510.5 102.43"><defs><style>.cls-1{fill:#d3385e;}.cls-2{fill:#f9bd1b;}.cls-3{fill:#122b4e;}.cls-4{fill:#52c4ca;}</style></defs><g id="Layer_2" data-name="Layer 2"><g id="Layer_1-2" data-name="Layer 1"><path class="cls-1" d="M203.31,41.58a7.47,7.47,0,0,0,7.45-7.35V22.09a27,27,0,0,0-13.7,16.08A7.44,7.44,0,0,0,203.31,41.58Z"/><path class="cls-1" d="M215.33,34.13h0v.07a7.45,7.45,0,0,0,14.89,0v-.09h0V20.3a26.92,26.92,0,0,0-14.89,0Z"/><path class="cls-1" d="M234.8,34.13h0v.07a7.44,7.44,0,0,0,13.69,4A27,27,0,0,0,234.8,22.09Z"/><path class="cls-2" d="M242.25,46.15a12,12,0,0,1-9.74-5,12,12,0,0,1-19.47,0A12,12,0,0,1,196,43.64c-.08.83-.13,1.68-.13,2.54a26.93,26.93,0,0,0,53.85,0c0-.86,0-1.71-.12-2.54A11.94,11.94,0,0,1,242.25,46.15Z"/><path class="cls-3" d="M449.48,59.15a7.43,7.43,0,0,0-13.16-4.73h0a12.12,12.12,0,1,1-.05-16.74,7.42,7.42,0,1,0,10.91-10h0a26.95,26.95,0,1,0-.09,36.94A7.4,7.4,0,0,0,449.48,59.15Z"/><path class="cls-4" d="M101,73a26.84,26.84,0,0,1-26.81-26.8V26.61a7.38,7.38,0,0,1,14.75,0V46.18a12.06,12.06,0,0,0,24.12,0V26.61a7.38,7.38,0,0,1,14.75,0V46.18A26.84,26.84,0,0,1,101,73Z"/><path class="cls-4" d="M181.33,19.21A7.37,7.37,0,0,0,174,26.59V46.15a12.06,12.06,0,1,1-24.12,0V26.59a7.38,7.38,0,1,0-14.75,0V46.15A26.79,26.79,0,0,0,174,70.08v5.54a12.14,12.14,0,0,1-4.59,9.46c-3.54,2.8-8.73,3.18-13,2-4.64-1.31-5.83-4.67-6.87-8.94a8,8,0,0,0-9.06-5.94,6.94,6.94,0,0,0-5.75,7.14c0,13.83,10.92,23.12,27.18,23.12a26.84,26.84,0,0,0,26.81-26.81v-49A7.37,7.37,0,0,0,181.33,19.21Z"/><path class="cls-3" d="M283.68,19.37a26.84,26.84,0,0,0-26.81,26.81V94.32a7.38,7.38,0,0,0,14.75,0V70.11a26.8,26.8,0,1,0,12.06-50.74Zm0,38.87a12.06,12.06,0,1,1,12.06-12.06A12.07,12.07,0,0,1,283.68,58.24Z"/><path class="cls-3" d="M366.85,19.31a26.81,26.81,0,1,0,0,53.61,26.56,26.56,0,0,0,13.08-3.42,7.37,7.37,0,0,0,13.72-3.74V46.12A26.83,26.83,0,0,0,366.85,19.31Zm0,38.87a12.06,12.06,0,1,1,12.06-12.06A12.07,12.07,0,0,1,366.85,58.18Z"/><path class="cls-4" d="M40.16,19.19A26.77,26.77,0,0,0,28,22.09V7.49A7.38,7.38,0,0,0,20.64.11H7.37a7.38,7.38,0,0,0,0,14.75h5.9V46.21h0a26.89,26.89,0,1,0,26.89-27Zm.07,38.89A12.06,12.06,0,1,1,52.29,46,12.06,12.06,0,0,1,40.23,58.08Z"/><path class="cls-3" d="M332.59,17h0V7.43a7.43,7.43,0,0,0-14.86,0V56.05h0v9.53a7.43,7.43,0,1,0,14.85,0V17Z"/><path class="cls-3" d="M502,26.5a7.51,7.51,0,0,0-1.74-1.2,26.81,26.81,0,1,0-4.52,44.61h0A7.37,7.37,0,1,0,489,56.79v0a12,12,0,0,1-15.18-3.28h29.29a5.24,5.24,0,0,0,.57,0,7.38,7.38,0,0,0,6.81-7.35A26.91,26.91,0,0,0,502,26.5Zm-6.78,15.93H471.87a12.14,12.14,0,0,1,6-7c.19-.1.39-.18.58-.27l.18-.09a12.22,12.22,0,0,1,14.15,3.19l0,0,.05.07a9.38,9.38,0,0,1,.61.77l.35.52c.08.12.16.24.23.37s.21.36.31.54.15.31.23.47.15.3.21.46c.14.33.27.66.39,1Z"/></g></g></svg>