<svg width="125" height="48" viewBox="0 0 125 48" fill="none" xmlns="http://www.w3.org/2000/svg">
<path d="M48.0846 27.919C48.0846 38.9223 39.1676 47.8423 28.168 47.8423C17.1683 47.8423 8.25138 38.9223 8.25138 27.919C8.25138 16.9156 17.1683 7.99561 28.168 7.99561C39.1676 7.99561 48.0846 16.9156 48.0846 27.919Z" fill="#F6A60A"/>
<path d="M0.899919 35.4922C-0.302482 42.4203 9.89627 42.7222 11.2062 35.6067L15.7179 42.7283C3.06462 48.9564 -2.28593 40.4264 0.899919 35.4922Z" fill="#F6A60A"/>
<path d="M42.1635 23.5379C41.9387 23.0503 41.6094 22.6183 41.1989 22.2727C40.7884 21.927 40.3069 21.6762 39.7885 21.538L39.7774 21.535C39.923 20.9852 39.9392 20.4092 39.8249 19.8522C39.7105 19.2952 39.4687 18.7724 39.1184 18.325C38.768 17.8776 38.3188 17.5177 37.8059 17.2736C37.2931 17.0296 36.7306 16.908 36.1626 16.9184C35.5947 16.9288 35.0368 17.071 34.5329 17.3337C34.0289 17.5965 33.5926 17.9726 33.2583 18.4326C32.9239 18.8926 32.7006 19.4239 32.6059 19.9847C32.5113 20.5455 32.5478 21.1206 32.7126 21.6647C32.7452 21.7646 32.7426 21.8727 32.7052 21.9709C32.6679 22.0692 32.598 22.1517 32.5073 22.2046L22.6193 27.9267C22.5281 27.9789 22.4219 27.9982 22.3183 27.9815C22.2147 27.9648 22.1199 27.913 22.0499 27.8348C21.6627 27.4187 21.1843 27.0983 20.6523 26.8988C20.1203 26.6993 19.5493 26.6261 18.9841 26.685C18.4189 26.7439 17.875 26.9333 17.3951 27.2383C16.9152 27.5432 16.5125 27.9555 16.2186 28.4426C15.9247 28.9297 15.7476 29.4783 15.7013 30.0454C15.6549 30.6124 15.7406 31.1824 15.9516 31.7105C16.1626 32.2386 16.4931 32.7103 16.9172 33.0887C17.3412 33.4671 17.8473 33.7417 18.3954 33.891L18.4065 33.894C18.2606 34.4439 18.2441 35.0201 18.3583 35.5773C18.4725 36.1345 18.7142 36.6575 19.0646 37.1051C19.4149 37.5527 19.8642 37.9128 20.3772 38.157C20.8902 38.4012 21.4529 38.5229 22.021 38.5124C22.5891 38.502 23.1471 38.3597 23.6512 38.0968C24.1552 37.8339 24.5916 37.4575 24.9259 36.9973C25.2602 36.537 25.4833 36.0055 25.5778 35.4445C25.6722 34.8834 25.6354 34.3082 25.4702 33.764C25.4377 33.6641 25.4403 33.556 25.4776 33.4578C25.515 33.3596 25.5848 33.2771 25.6755 33.2241L35.5646 27.5023C35.6558 27.4501 35.762 27.4308 35.8656 27.4475C35.9693 27.4642 36.064 27.516 36.1341 27.5942C36.7278 28.2417 37.5337 28.6545 38.4057 28.758C39.2777 28.8614 40.158 28.6486 40.8872 28.158C41.6163 27.6675 42.146 26.9317 42.3802 26.0841C42.6143 25.2366 42.5374 24.3332 42.1635 23.5379Z" fill="white"/>
<path fill-rule="evenodd" clip-rule="evenodd" d="M33.7083 8.55327C33.5028 8.40574 33.2166 8.45274 33.069 8.65824C28.5673 14.929 20.7402 21.5643 9.52262 22.128C9.26996 22.1407 9.07543 22.3558 9.08813 22.6085C9.10082 22.8611 9.31593 23.0556 9.56859 23.0429C21.1535 22.4608 29.2089 15.6062 33.8132 9.1925C33.9608 8.987 33.9138 8.70081 33.7083 8.55327Z" fill="white"/>
<path fill-rule="evenodd" clip-rule="evenodd" d="M47.6195 33.0269C47.6464 33.2784 47.4643 33.5041 47.2127 33.531C39.6595 34.3378 30.0922 37.7957 24.0392 47.0235C23.9004 47.235 23.6165 47.294 23.4049 47.1552C23.1934 47.0165 23.1344 46.7325 23.2732 46.521C29.5251 36.9899 39.3914 33.4451 47.1154 32.6201C47.367 32.5932 47.5927 32.7753 47.6195 33.0269Z" fill="white"/>
<path d="M10.0072 10.9416C11.2975 11.2982 12.1701 12.2149 11.9561 12.9891C11.7422 13.7633 10.5227 14.1019 9.23237 13.7453C7.94203 13.3887 7.06944 12.472 7.28339 11.6978C7.49734 10.9236 8.71682 10.585 10.0072 10.9416Z" fill="#F6A60A"/>
<path d="M13.572 5.57113C14.7068 7.06269 14.9358 8.79754 14.0835 9.44601C13.2312 10.0945 11.6203 9.41103 10.4855 7.91947C9.35063 6.4279 9.12161 4.69306 9.97393 4.04458C10.8263 3.3961 12.4372 4.07956 13.572 5.57113Z" fill="#F6A60A"/>
<path d="M22.4219 4.09723C21.9977 5.36698 22.2715 6.60261 23.0333 6.85709C23.7952 7.11158 24.7566 6.28855 25.1808 5.0188C25.6049 3.74906 25.3311 2.51343 24.5693 2.25894C23.8074 2.00446 22.846 2.82749 22.4219 4.09723Z" fill="#F6A60A"/>
<path d="M15.9903 3.83421C16.2151 5.69488 17.2593 7.09911 18.3225 6.97065C19.3857 6.8422 20.0654 5.2297 19.8406 3.36903C19.6158 1.50837 18.5717 0.104134 17.5084 0.23259C16.4452 0.361046 15.7655 1.97355 15.9903 3.83421Z" fill="#F6A60A"/>
<path fill-rule="evenodd" clip-rule="evenodd" d="M28.2776 46.9652C38.9027 46.9652 47.516 38.3519 47.516 27.7268C47.516 17.1017 38.9027 8.48838 28.2776 8.48838C17.6525 8.48838 9.03916 17.1017 9.03916 27.7268C9.03916 38.3519 17.6525 46.9652 28.2776 46.9652ZM28.2776 47.8813C39.4086 47.8813 48.4321 38.8578 48.4321 27.7268C48.4321 16.5958 39.4086 7.57227 28.2776 7.57227C17.1465 7.57227 8.12305 16.5958 8.12305 27.7268C8.12305 38.8578 17.1465 47.8813 28.2776 47.8813Z" fill="white"/>
<path d="M64.3806 34.724C63.802 34.724 63.354 34.5653 63.0366 34.248C62.738 33.912 62.5886 33.4547 62.5886 32.876V16.58C62.5886 15.9827 62.7473 15.5347 63.0646 15.236C63.382 14.9187 63.83 14.76 64.4086 14.76H71.1566C73.322 14.76 74.9926 15.3013 76.1686 16.384C77.3446 17.4667 77.9326 18.9787 77.9326 20.92C77.9326 22.8613 77.3446 24.3827 76.1686 25.484C74.9926 26.5667 73.322 27.108 71.1566 27.108H66.1726V32.876C66.1726 33.4547 66.0233 33.912 65.7246 34.248C65.426 34.5653 64.978 34.724 64.3806 34.724ZM66.1726 24.28H70.5966C71.866 24.28 72.8273 24 73.4806 23.44C74.134 22.8613 74.4606 22.0213 74.4606 20.92C74.4606 19.8187 74.134 18.988 73.4806 18.428C72.8273 17.868 71.866 17.588 70.5966 17.588H66.1726V24.28ZM84.8742 34.78C83.3249 34.78 82.1582 34.3413 81.3742 33.464C80.5902 32.568 80.1982 31.2613 80.1982 29.544V16.3C80.1982 15.7213 80.3476 15.2827 80.6462 14.984C80.9449 14.6853 81.3742 14.536 81.9342 14.536C82.4942 14.536 82.9236 14.6853 83.2222 14.984C83.5396 15.2827 83.6982 15.7213 83.6982 16.3V29.376C83.6982 30.2347 83.8756 30.8693 84.2302 31.28C84.6036 31.6907 85.1262 31.896 85.7982 31.896C85.9476 31.896 86.0876 31.896 86.2182 31.896C86.3489 31.8773 86.4796 31.8587 86.6102 31.84C86.8716 31.8027 87.0489 31.8773 87.1422 32.064C87.2356 32.232 87.2822 32.5867 87.2822 33.128C87.2822 33.5947 87.1889 33.9587 87.0022 34.22C86.8156 34.4813 86.5076 34.64 86.0782 34.696C85.8916 34.7147 85.6956 34.7333 85.4902 34.752C85.2849 34.7707 85.0796 34.78 84.8742 34.78ZM93.3276 34.78C92.3383 34.78 91.4516 34.5933 90.6676 34.22C89.9023 33.828 89.2956 33.3053 88.8476 32.652C88.4183 31.9987 88.2036 31.2613 88.2036 30.44C88.2036 29.432 88.465 28.6387 88.9876 28.06C89.5103 27.4627 90.3596 27.0333 91.5356 26.772C92.7116 26.5107 94.289 26.38 96.2676 26.38H97.6676V28.396H96.2956C95.1383 28.396 94.2143 28.452 93.5236 28.564C92.833 28.676 92.3383 28.872 92.0396 29.152C91.7596 29.4133 91.6196 29.7867 91.6196 30.272C91.6196 30.888 91.8343 31.392 92.2636 31.784C92.693 32.176 93.2903 32.372 94.0556 32.372C94.6716 32.372 95.213 32.232 95.6796 31.952C96.165 31.6533 96.5476 31.252 96.8276 30.748C97.1076 30.244 97.2476 29.6653 97.2476 29.012V25.792C97.2476 24.8587 97.0423 24.1867 96.6316 23.776C96.221 23.3653 95.5303 23.16 94.5596 23.16C94.0183 23.16 93.4303 23.2253 92.7956 23.356C92.1796 23.4867 91.5263 23.7107 90.8356 24.028C90.481 24.196 90.1636 24.2427 89.8836 24.168C89.6223 24.0933 89.417 23.944 89.2676 23.72C89.1183 23.4773 89.0436 23.216 89.0436 22.936C89.0436 22.656 89.1183 22.3853 89.2676 22.124C89.417 21.844 89.669 21.6387 90.0236 21.508C90.8823 21.1533 91.7036 20.9013 92.4876 20.752C93.2903 20.6027 94.0183 20.528 94.6716 20.528C96.0156 20.528 97.117 20.7333 97.9756 21.144C98.853 21.5547 99.5063 22.18 99.9356 23.02C100.365 23.8413 100.58 24.9053 100.58 26.212V32.932C100.58 33.5107 100.44 33.9587 100.16 34.276C99.8796 34.5747 99.4783 34.724 98.9556 34.724C98.433 34.724 98.0223 34.5747 97.7236 34.276C97.4436 33.9587 97.3036 33.5107 97.3036 32.932V31.588H97.5276C97.397 32.2413 97.1356 32.8107 96.7436 33.296C96.3703 33.7627 95.8943 34.1267 95.3156 34.388C94.737 34.6493 94.0743 34.78 93.3276 34.78ZM108.967 34.724C108.501 34.724 108.099 34.612 107.763 34.388C107.427 34.1453 107.157 33.772 106.951 33.268L102.891 22.908C102.723 22.46 102.667 22.068 102.723 21.732C102.798 21.3773 102.975 21.0973 103.255 20.892C103.535 20.6867 103.909 20.584 104.375 20.584C104.786 20.584 105.122 20.6867 105.383 20.892C105.645 21.0787 105.869 21.4427 106.055 21.984L109.443 31.308H108.799L112.299 21.76C112.449 21.3493 112.645 21.0507 112.887 20.864C113.149 20.6773 113.485 20.584 113.895 20.584C114.306 20.584 114.642 20.6867 114.903 20.892C115.165 21.0787 115.361 21.368 115.491 21.76L118.935 31.308H118.347L121.763 21.9C121.95 21.396 122.183 21.0507 122.463 20.864C122.762 20.6773 123.089 20.584 123.443 20.584C123.891 20.584 124.237 20.696 124.479 20.92C124.722 21.144 124.862 21.4333 124.899 21.788C124.937 22.124 124.871 22.4973 124.703 22.908L120.671 33.268C120.485 33.7533 120.214 34.1173 119.859 34.36C119.523 34.6027 119.122 34.724 118.655 34.724C118.189 34.724 117.778 34.6027 117.423 34.36C117.087 34.1173 116.826 33.7533 116.639 33.268L112.971 23.552H114.567L110.983 33.24C110.797 33.744 110.535 34.1173 110.199 34.36C109.863 34.6027 109.453 34.724 108.967 34.724Z" fill="#F6A60A"/>
</svg>
